<!-- Generator: Adobe Illustrator 24.0.1, SVG Export Plug-In  -->
<svg version="1.1" xmlns="http://www.w3.org/2000/svg" xmlns:xlink="http://www.w3.org/1999/xlink" x="0px" y="0px"
viewBox="0 0 198.47 34.09" style="enable-background:new 0 0 198.47 34.09;" xml:space="preserve">
<style type="text/css">
	.st0{fill:#FFFFFF;}
</style>
<defs>
</defs>
<g>
	<path id="path111036_1_" class="st0" d="M20.09,15.49c1.42-1.75,2.06-4.05,2.06-6.33c0-4.42-3.85-8.67-10.27-8.67H0v14.47h11.68
		c3.72,0,5.91-1.95,5.91-5.4c0-2.21-1.59-4.69-6.06-4.69H4.65v5.71H6.5V6.73h5.02c2.48,0,4.2,0.95,4.2,2.83
		c0,2.3-1.28,3.54-3.87,3.54h-10V2.35h10.02c5.31,0,8.41,3.34,8.41,6.81c0,3.76-1.81,5.57-3.25,6.7c3.01,1.28,5.02,3.72,5.02,7.85
		c0,4.29-3.19,8.05-9.07,8.05H1.86V19.31h10.69c3.34,0,4.87,1.97,4.87,4.14c0,2.1-1.24,3.94-4.34,3.94H6.5v-5.55H4.65v7.41h8.43
		c4.25,0,6.19-2.79,6.19-5.8c0-3.41-2.59-6-6.73-6H0v16.17h12.99c6.75,0,10.93-4.42,10.93-9.91C23.91,20,22.52,17.28,20.09,15.49
		L20.09,15.49z"/>
	<path id="path111040_1_" class="st0" d="M79.42,0.49v31.28h-2.79V0.49H66.13v6.24h5.86V4.87h-4V2.35h6.79v31.28h6.5V2.35h6.77v2.52
		h-3.98v1.86h5.84V0.49H79.42z"/>
	<path id="path111042_1_" class="st0" d="M116.24,25.11c-2.23,1.48-4.62,2.74-7.5,2.74c-4.96,0-7.39-3.89-8.01-8.14h-1.88
		c0.71,5.29,3.85,10,9.89,10c2.63,0,4.87-0.88,6.77-1.97l1.24,2.37c-2.61,1.44-5.27,2.12-8.19,2.12c-8.47,0-12.65-7.12-12.65-14.89
		v-0.13h4.65v-0.49c0-5.18,2.79-10.49,7.74-10.49c3.14,0,4.67,0.97,6.97,2.61l3.1-5.55c-2.9-2.17-5.97-3.3-10.2-3.3
		c-7.7,0-12.46,5.95-13.76,12.83h1.9c1.22-5.91,5.24-10.97,11.86-10.97c3.03,0,5.44,0.62,7.74,2.01l-1.28,2.3
		c-1.81-1.13-3.54-1.79-6.33-1.79c-5.73,0-9.11,5.42-9.53,10.97h-4.67c-0.02,0.44-0.04,0.91-0.04,1.37v0.62
		c0,9.23,5.31,16.75,14.51,16.75c4.36,0,7.74-1.37,10.64-3.3L116.24,25.11z"/>
	<path id="path111046_1_" class="st0" d="M167.92,6.73V0.49h-6.5v1.86h4.65v2.52h-4.65v28.76h6.5V9.25h-1.86v22.52h-2.79V6.73
		H167.92z"/>
	<path id="path111048_1_" class="st0" d="M191.97,22.17L179.2,0.49h-2.17L193.83,29V2.35h2.79v29.42h-4.27L173.89,0.49h-1.84v33.14
		h6.5V17.43l-1.86-3.16v17.5h-2.79V4.18l17.37,29.45h7.19V0.49h-6.5L191.97,22.17z"/>
	<g>
		<path class="st0" d="M143.08,0.31V2.2c7.02,1.3,12.33,7.45,12.33,14.85c0,8.34-6.76,15.11-15.11,15.11
			c-8.34,0-15.11-6.76-15.11-15.11c0-8.03,6.27-14.6,14.18-15.07v2.65v1.26v0.41c0.31-0.03,0.61-0.04,0.92-0.04
			c5.97,0,10.8,4.84,10.8,10.8s-4.84,10.8-10.8,10.8c-5.97,0-10.8-4.84-10.8-10.8c0-5.01,3.41-9.22,8.03-10.44V4.9
			c-5.55,1.26-9.69,6.22-9.69,12.15c0,6.88,5.58,12.46,12.46,12.46c6.88,0,12.46-5.58,12.46-12.46c0-6.57-5.09-11.95-11.54-12.42
			V1.97V0.45V0.1c-0.31-0.02-0.61-0.03-0.92-0.03c-9.37,0-16.97,7.6-16.97,16.97s7.6,16.97,16.97,16.97
			c9.37,0,16.97-7.6,16.97-16.97C157.28,8.62,151.13,1.63,143.08,0.31z"/>
		<g>
			<path class="st0" d="M141.61,9.7c0,0.5,0,1,0,1.51c0.91,0.1,1.75,0.29,2.55,0.74c-0.24,0.9-0.48,1.8-0.73,2.74
				c-0.27-0.12-0.5-0.23-0.73-0.33c-0.6-0.27-1.22-0.43-1.87-0.43c-0.18,0-0.36,0.01-0.54,0.04c-0.09,0.01-0.19,0.04-0.28,0.08
				c-0.37,0.16-0.43,0.51-0.1,0.72c0.38,0.24,0.79,0.42,1.2,0.6c0.56,0.26,1.16,0.46,1.7,0.76c1.19,0.65,1.78,1.7,1.72,3.05
				c-0.06,1.35-0.73,2.33-1.93,2.95c-0.25,0.13-0.53,0.24-0.8,0.31c-0.23,0.06-0.29,0.17-0.29,0.4c0.01,0.52-0.01,1.03-0.01,1.55
				c-0.82,0-1.65,0-2.47,0c-0.01-0.44-0.04-0.88-0.02-1.32c0.01-0.28-0.06-0.39-0.36-0.42c-0.91-0.1-1.78-0.35-2.57-0.85
				c0.24-0.94,0.48-1.88,0.72-2.81c0.4,0.19,0.76,0.39,1.14,0.54c0.59,0.24,1.2,0.39,1.84,0.39c0.11,0,0.21,0,0.32-0.01
				c0.23-0.02,0.48-0.08,0.69-0.18c0.37-0.17,0.42-0.56,0.11-0.82c-0.22-0.19-0.49-0.33-0.76-0.45c-0.46-0.2-0.94-0.32-1.39-0.54
				c-0.47-0.23-0.95-0.47-1.35-0.8c-1.73-1.41-1.47-4.06,0.5-5.22c0.31-0.18,0.66-0.31,1-0.44c0.16-0.06,0.23-0.13,0.22-0.3
				c-0.01-0.49,0-0.97,0-1.47C139.94,9.7,140.75,9.7,141.61,9.7 M141.61,8.46h-2.51c-0.69,0-1.24,0.56-1.24,1.24l0,0.42
				c0,0.14,0,0.28,0,0.42c-0.2,0.09-0.4,0.18-0.6,0.3c-1.3,0.77-2.14,2.09-2.25,3.56c-0.1,1.31,0.38,2.55,1.32,3.45
				c-0.02,0.01-0.03,0.01-0.05,0.02c-0.34,0.16-0.59,0.46-0.68,0.82l-0.33,1.3l-0.39,1.52c-0.13,0.52,0.08,1.07,0.54,1.36
				c0.7,0.44,1.47,0.74,2.36,0.92c0,0.09,0.01,0.18,0.01,0.27c0,0.13,0.01,0.25,0.01,0.38c0.02,0.67,0.57,1.21,1.24,1.21h2.47
				c0.68,0,1.23-0.55,1.24-1.23c0-0.15,0-0.29,0.01-0.44c0-0.18,0.01-0.36,0.01-0.54c0.14-0.06,0.27-0.12,0.41-0.19
				c1.63-0.84,2.53-2.22,2.61-4c0.06-1.48-0.47-2.73-1.52-3.62c0.17-0.16,0.3-0.36,0.36-0.6l0.37-1.38l0.37-1.36
				c0.15-0.55-0.1-1.13-0.59-1.4c-0.65-0.37-1.31-0.58-1.92-0.71V9.7C142.85,9.01,142.29,8.46,141.61,8.46L141.61,8.46z"/>
		</g>
	</g>
	<g>
		<path class="st0" d="M47.8,0.31V2.2c7.02,1.3,12.33,7.45,12.33,14.85c0,8.34-6.76,15.11-15.11,15.11s-15.11-6.76-15.11-15.11
			c0-8.03,6.27-14.6,14.18-15.07v2.65v1.26v0.41c0.31-0.03,0.61-0.04,0.92-0.04c5.97,0,10.8,4.84,10.8,10.8s-4.84,10.8-10.8,10.8
			s-10.8-4.84-10.8-10.8c0-5.01,3.41-9.22,8.03-10.44V4.9c-5.55,1.26-9.69,6.22-9.69,12.15c0,6.88,5.58,12.46,12.46,12.46
			s12.46-5.58,12.46-12.46c0-6.57-5.09-11.95-11.54-12.42V1.97V0.45V0.1c-0.31-0.02-0.61-0.03-0.92-0.03
			c-9.37,0-16.97,7.6-16.97,16.97s7.6,16.97,16.97,16.97s16.97-7.6,16.97-16.97C61.99,8.62,55.85,1.63,47.8,0.31z"/>
	</g>
	<path class="st0" d="M48.04,8.74c-2.57,0-4.65,2.08-4.65,4.65c0,2.57,2.08,4.65,4.65,4.65c2.57,0,4.65-2.08,4.65-4.65
		C52.68,10.82,50.6,8.74,48.04,8.74z M48.04,16.4c-1.66,0-3.01-1.35-3.01-3.01c0-1.66,1.35-3.01,3.01-3.01
		c1.66,0,3.01,1.35,3.01,3.01C51.05,15.05,49.7,16.4,48.04,16.4z"/>
</g>
</svg>
