<!-- Generator: Adobe Illustrator 24.0.1, SVG Export Plug-In  -->
<svg version="1.1" xmlns="http://www.w3.org/2000/svg" xmlns:xlink="http://www.w3.org/1999/xlink" x="0px" y="0px"
viewBox="0 0 479.57 82.38" style="enable-background:new 0 0 479.57 82.38;" xml:space="preserve">
<style type="text/css">
	.st0{fill:#C4DB97;}
</style>
<defs>
</defs>
<g>
	<path id="path111036_2_" class="st0" d="M48.54,37.42c3.42-4.22,4.97-9.78,4.97-15.29c0-10.69-9.3-20.95-24.8-20.95H0v34.96h28.22
		c8.98,0,14.27-4.7,14.27-13.04c0-5.35-3.85-11.33-14.65-11.33H11.23v13.79h4.49v-9.3h12.13c5.99,0,10.16,2.3,10.16,6.84
		c0,5.56-3.1,8.55-9.35,8.55H4.49V5.67h24.22c12.83,0,20.31,8.07,20.31,16.46c0,9.09-4.38,13.47-7.86,16.2
		c7.27,3.1,12.13,8.98,12.13,18.98c0,10.37-7.7,19.46-21.92,19.46H4.49v-30.1h25.82c8.07,0,11.76,4.76,11.76,10
		c0,5.08-2.99,9.52-10.48,9.52H15.72V52.76h-4.49v17.91h20.37c10.26,0,14.97-6.74,14.97-14.01c0-8.23-6.25-14.49-16.25-14.49H0
		v39.08h31.38c16.3,0,26.41-10.69,26.41-23.95C57.79,48.32,54.42,41.75,48.54,37.42L48.54,37.42z"/>
	<path id="path111040_2_" class="st0" d="M191.91,1.18v75.59h-6.74V1.18h-25.39v15.07h14.17v-4.49h-9.68V5.67h16.41v75.59h15.72
		V5.67h16.36v6.09h-9.62v4.49h14.11V1.18H191.91z"/>
	<path id="path111042_2_" class="st0" d="M280.87,60.67c-5.4,3.58-11.17,6.63-18.12,6.63c-11.97,0-17.85-9.41-19.35-19.67h-4.54
		c1.71,12.78,9.3,24.16,23.89,24.16c6.36,0,11.76-2.14,16.36-4.76l2.99,5.72c-6.31,3.47-12.72,5.13-19.78,5.13
		c-20.47,0-30.58-17.21-30.58-35.98v-0.32h11.23v-1.18c0-12.51,6.74-25.34,18.71-25.34c7.59,0,11.28,2.35,16.84,6.31L286,7.96
		C279,2.73,271.57,0,261.36,0c-18.6,0-30.1,14.38-33.25,31h4.6c2.94-14.27,12.67-26.51,28.65-26.51c7.32,0,13.15,1.5,18.71,4.86
		l-3.1,5.56c-4.38-2.73-8.55-4.33-15.29-4.33c-13.85,0-22.02,13.1-23.04,26.51h-11.28c-0.05,1.07-0.11,2.19-0.11,3.31v1.5
		c0,22.29,12.83,40.47,35.07,40.47c10.53,0,18.71-3.31,25.71-7.96L280.87,60.67z"/>
	<path id="path111046_2_" class="st0" d="M405.75,16.25V1.18h-15.72v4.49h11.23v6.09h-11.23v69.49h15.72V22.34h-4.49v54.42h-6.74
		V16.25H405.75z"/>
	<path id="path111048_2_" class="st0" d="M463.86,53.56L433.01,1.18h-5.24l40.57,68.91V5.67h6.74v71.1h-10.32L420.18,1.18h-4.44
		v80.08h15.72V42.12l-4.49-7.64v42.28h-6.74V10.1l41.96,71.15h17.37V1.18h-15.72L463.86,53.56z"/>
	<g>
		<path class="st0" d="M345.73,0.74v4.57c16.96,3.15,29.8,18.01,29.8,35.88c0,20.16-16.34,36.5-36.5,36.5s-36.5-16.34-36.5-36.5
			c0-19.41,15.15-35.27,34.27-36.43v6.4v3.04v0.98c0.74-0.06,1.48-0.1,2.23-0.1c14.42,0,26.1,11.69,26.1,26.1s-11.69,26.1-26.1,26.1
			s-26.1-11.69-26.1-26.1c0-12.1,8.23-22.27,19.4-25.23v-4.12c-13.4,3.05-23.41,15.03-23.41,29.36c0,16.63,13.48,30.11,30.11,30.11
			s30.11-13.48,30.11-30.11c0-15.88-12.29-28.88-27.88-30.02v-6.4V1.1V0.25c-0.74-0.04-1.48-0.06-2.23-0.06c-22.64,0-41,18.36-41,41
			s18.36,41,41,41s41-18.36,41-41C380.03,20.83,365.19,3.94,345.73,0.74z"/>
		<g>
			<path class="st0" d="M342.17,23.44c0,1.21,0,2.42,0,3.66c2.19,0.25,4.23,0.71,6.16,1.79c-0.58,2.18-1.17,4.36-1.78,6.62
				c-0.64-0.3-1.2-0.56-1.76-0.81c-1.46-0.65-2.95-1.04-4.51-1.04c-0.43,0-0.86,0.03-1.3,0.09c-0.23,0.03-0.46,0.09-0.67,0.18
				c-0.89,0.38-1.04,1.24-0.23,1.75c0.91,0.57,1.92,1,2.9,1.46c1.36,0.63,2.8,1.12,4.11,1.83c2.88,1.58,4.29,4.11,4.16,7.38
				c-0.14,3.25-1.77,5.64-4.67,7.12c-0.61,0.31-1.27,0.57-1.94,0.75c-0.56,0.15-0.7,0.42-0.69,0.97c0.03,1.25-0.01,2.5-0.03,3.75
				c-1.99,0-3.98,0-5.98,0c-0.03-1.06-0.1-2.13-0.06-3.19c0.02-0.68-0.14-0.94-0.88-1.03c-2.2-0.25-4.3-0.84-6.22-2.05
				c0.58-2.28,1.16-4.53,1.74-6.8c0.96,0.46,1.83,0.93,2.75,1.31c1.43,0.59,2.91,0.94,4.44,0.94c0.26,0,0.52-0.01,0.78-0.03
				c0.56-0.04,1.15-0.19,1.66-0.43c0.89-0.42,1.02-1.34,0.27-1.97c-0.54-0.45-1.19-0.8-1.84-1.08c-1.1-0.48-2.28-0.78-3.36-1.31
				c-1.14-0.55-2.3-1.14-3.27-1.93c-4.19-3.41-3.56-9.8,1.21-12.61c0.75-0.44,1.58-0.76,2.41-1.06c0.39-0.14,0.55-0.3,0.54-0.73
				c-0.03-1.17-0.01-2.35-0.01-3.56C338.15,23.44,340.11,23.44,342.17,23.44 M342.17,20.44h-6.06c-1.66,0-3,1.34-3,3l0,1.01
				c0,0.34,0,0.68,0,1.02c-0.49,0.21-0.97,0.44-1.45,0.72c-3.14,1.85-5.18,5.06-5.44,8.59c-0.24,3.16,0.91,6.15,3.19,8.33
				c-0.04,0.02-0.08,0.03-0.12,0.05c-0.81,0.38-1.42,1.1-1.64,1.97l-0.8,3.13l-0.94,3.67c-0.32,1.26,0.2,2.59,1.31,3.28
				c1.68,1.06,3.56,1.79,5.71,2.21c0.01,0.22,0.02,0.44,0.02,0.66c0.01,0.3,0.02,0.61,0.03,0.91c0.04,1.63,1.37,2.93,3,2.93h5.98
				c1.64,0,2.98-1.32,3-2.97c0-0.36,0.01-0.71,0.02-1.07c0.01-0.43,0.02-0.87,0.02-1.31c0.33-0.14,0.66-0.29,0.98-0.46
				c3.94-2.02,6.12-5.36,6.3-9.66c0.15-3.56-1.15-6.6-3.68-8.75c0.42-0.38,0.73-0.88,0.88-1.44l0.89-3.33l0.88-3.29
				c0.35-1.32-0.23-2.72-1.43-3.39c-1.58-0.89-3.17-1.4-4.63-1.72v-1.11C345.17,21.78,343.82,20.44,342.17,20.44L342.17,20.44z"/>
		</g>
	</g>
	<g>
		<path class="st0" d="M115.49,0.74v4.57c16.96,3.15,29.8,18.01,29.8,35.88c0,20.16-16.34,36.5-36.5,36.5s-36.5-16.34-36.5-36.5
			c0-19.41,15.15-35.27,34.27-36.43v6.4v3.04v0.98c0.74-0.06,1.48-0.1,2.23-0.1c14.42,0,26.1,11.69,26.1,26.1s-11.69,26.1-26.1,26.1
			s-26.1-11.69-26.1-26.1c0-12.1,8.23-22.27,19.4-25.23v-4.12c-13.4,3.05-23.41,15.03-23.41,29.36c0,16.63,13.48,30.11,30.11,30.11
			s30.11-13.48,30.11-30.11c0-15.88-12.29-28.88-27.88-30.02v-6.4V1.1V0.25c-0.74-0.04-1.48-0.06-2.23-0.06c-22.64,0-41,18.36-41,41
			s18.36,41,41,41s41-18.36,41-41C149.79,20.83,134.94,3.94,115.49,0.74z"/>
	</g>
	<path class="st0" d="M116.07,21.12c-6.2,0-11.23,5.03-11.23,11.23c0,6.2,5.03,11.23,11.23,11.23c6.2,0,11.23-5.03,11.23-11.23
		C127.3,26.15,122.27,21.12,116.07,21.12z M116.07,39.63c-4.02,0-7.28-3.26-7.28-7.28c0-4.02,3.26-7.28,7.28-7.28
		c4.02,0,7.28,3.26,7.28,7.28C123.35,36.37,120.09,39.63,116.07,39.63z"/>
</g>
</svg>
