<svg version="1.1" xmlns="http://www.w3.org/2000/svg" xmlns:xlink="http://www.w3.org/1999/xlink" x="0px" y="0px" width="477.4px"
	 height="117.09px" viewBox="0 0 477.4 117.09" style="enable-background:new 0 0 477.4 117.09;" xml:space="preserve">
<style type="text/css">
	.st0{fill:#0B2E3A;}
	.st1{fill:#F15A24;}
	.st2{fill:#585858;}
	.st3{fill:#F2F2F2;}
	.st4{fill:#FF5350;}
</style>
<defs>
</defs>
<g>
	<g>
		<path class="st0" d="M7.85,53.05c-0.02-0.21,0-0.31-0.04-0.4c-0.64-1.46-0.62-1.44,0.67-2.52c4.52-3.75,9.5-6.74,15.01-8.76
			c2.43-0.89,4.98-1.5,7.51-2.1c5.03-1.2,10.16-1.29,15.29-0.95c1.64,0.11,3.26,0.46,4.82,0.69c0.25-1.66,0.34-3.33,0.79-4.89
			c0.47-1.63,1.27-3.18,1.98-4.73c0.12-0.27,0.61-0.64,0.79-0.57c0.31,0.12,0.61,0.49,0.73,0.83c0.48,1.29,0.88,2.6,1.37,4.08
			c0.4-0.46,0.7-0.78,0.97-1.13c2.92-3.89,6.72-6.66,11.07-8.73c1.52-0.72,1.54-0.69,1.04-2.3c-0.36-1.17-0.75-2.32-1.13-3.48
			c-0.19-0.58-0.24-1.01,0.46-1.39c3.81-2.03,7.56-4.17,11.37-6.18c5.55-2.92,11.21-5.6,17.2-7.48c3.46-1.09,7-1.9,10.52-2.77
			c0.89-0.22,1.84-0.27,2.76-0.27c0.35,0,0.84,0.27,1.02,0.57c3.01,4.96,5.98,9.94,8.96,14.92c3.71,6.19,7.42,12.38,11.13,18.57
			c3.25,5.43,6.5,10.85,9.75,16.28c0.27,0.45,0.52,0.92,0.79,1.37c0.43,0.71,0.2,1.13-0.56,1.29c-1.03,0.22-2.09,0.34-3.11,0.61
			c-3.43,0.91-6.85,1.86-10.27,2.83c-0.97,0.27-1.92,0.64-3.01,1.01c1.57,2.2,3.06,4.28,4.55,6.36c2.59,3.61,5.19,7.22,7.76,10.85
			c0.9,1.26,0.88,4-0.24,5.03c-0.72,0.67-1.83,0.97-2.8,1.31c-4.05,1.4-8.11,2.75-12.18,4.1c-3.16,1.05-6.33,2.05-9.49,3.11
			c-3.97,1.32-7.93,2.68-11.9,4.01c-3.16,1.05-6.31,2.12-9.49,3.1c-2.5,0.77-2.51,0.71-4.06-1.39c-0.33-0.45-0.66-0.89-1.01-1.37
			c-1.06,0.43-1.63,1.13-1.61,2.26c0.01,0.53,0.02,1.06,0.03,1.59c0.02,1.72,0.04,1.76-1.53,2.39c-3.61,1.45-7.24,2.83-10.84,4.3
			c-1.95,0.8-3.84,1.76-5.79,2.58c-1.81,0.76-3.67,1.36-5.48,2.13c-4.51,1.91-8.99,3.9-13.49,5.82c-2.61,1.11-5.22,2.21-7.87,3.22
			c-1.68,0.64-3.26,0.06-4.24-1.43c-3.87-5.93-7.71-11.88-11.57-17.83c-1.24-1.91-2.5-3.79-3.73-5.71c-0.51-0.81-1.11-1.6-1.53-2.42
			c-0.93-1.78-2.31-3.21-3.27-4.96c-0.99-1.82-2.24-3.49-3.37-5.24c-1.13-1.74-2.25-3.49-3.38-5.23C6.37,69.68,3.55,65.35,0.75,61
			c-1.17-1.81-0.96-4.25,0.59-5.28c0.94-0.63,2.1-0.94,3.16-1.37C5.59,53.92,6.7,53.5,7.85,53.05z M85.21,92
			c-1.12-1.74-2.08-3.28-3.07-4.79c-7.1-10.86-14.21-21.72-21.31-32.59c-2.83-4.33-5.65-8.66-8.46-13
			c-0.42-0.65-0.85-1.18-1.74-1.25c-1.54-0.13-3.08-0.36-4.61-0.6c-4.34-0.68-8.67-0.22-12.95,0.44c-4.4,0.69-8.65,2.01-12.69,3.94
			c-3.94,1.87-7.6,4.17-10.94,6.98c-0.5,0.42-0.54,0.7-0.2,1.22c4.55,6.94,9.08,13.9,13.63,20.84c4.69,7.16,9.39,14.32,14.08,21.48
			c1.82,2.78,3.64,5.57,5.45,8.37c0.4,0.61,0.74,0.79,1.41,0.29c0.73-0.55,1.58-0.96,2.39-1.4c4.4-2.4,8.93-4.47,13.67-6.13
			c4-1.4,8.06-2.5,12.23-3.17c3.92-0.63,7.89-0.87,11.87-0.62C84.31,92.01,84.66,92,85.21,92z M141.04,51.72
			c-0.1-0.21-0.14-0.33-0.2-0.44c-2.08-3.51-4.15-7.03-6.25-10.53c-4.92-8.23-9.86-16.44-14.79-24.67
			c-2.81-4.69-5.61-9.39-8.41-14.09c-0.3-0.5-0.68-0.76-1.3-0.65c-1.4,0.25-2.84,0.35-4.19,0.74c-3.61,1.03-7.26,1.99-10.75,3.35
			c-4.38,1.71-8.67,3.68-12.89,5.76c-3.89,1.92-7.64,4.14-11.47,6.19c-0.5,0.27-0.68,0.54-0.5,1.09c0.63,1.91,1.3,3.81,1.82,5.76
			c0.25,0.92,0.66,1.1,1.38,0.67c0.88-0.52,1.28-0.08,1.54,0.67c0.46,1.34,0.87,2.7,1.33,4.04c0.16,0.48,0.4,0.94,0.61,1.44
			c0.52-0.28,0.9-0.54,1.33-0.7c0.43-0.16,0.9-0.23,1.35-0.34c0.08,0.43,0.25,0.88,0.22,1.3c-0.12,1.47-0.32,2.94-0.49,4.5
			c0.43,0.02,0.78,0.06,1.14,0.06c2.15,0.03,4.3,0.04,6.45,0.07c2.3,0.03,2.46,0.29,1.57,2.38c-0.47,1.1-0.88,2.23-1.39,3.56
			c0.99-0.19,1.77-0.32,2.52-0.5c0.8-0.19,1.34-0.14,1.67,0.82c1.11,3.21,2.27,6.4,3.51,9.56c0.49,1.24,0.53,2.77,2.03,3.47
			c0.71,0.33,1.31,0.87,1.99,1.28c0.56,0.34,0.71,0.75,0.56,1.41c-0.37,1.68-0.67,3.37-0.97,5.06c-0.07,0.4-0.05,0.81-0.09,1.38
			c1.16-0.62,2.12-1.17,3.12-1.64c0.31-0.14,0.79-0.17,1.08-0.02c0.16,0.08,0.17,0.64,0.1,0.95c-0.25,1.07-0.57,2.13-0.87,3.19
			c0.07,0.09,0.14,0.17,0.21,0.26c1.01-0.35,2.08-0.58,3.01-1.07c4.24-2.24,8.44-4.55,12.65-6.83c0.5-0.27,1-0.42,1.13,0.12
			c0.37-0.33,0.71-0.8,1.16-1c2.3-0.97,4.59-2.01,6.97-2.75c3.86-1.2,7.79-2.19,11.69-3.27C139.41,52.12,140.2,51.94,141.04,51.72z
			 M58.04,37.08c0.12-0.01,0.32-0.01,0.5-0.05c1.58-0.4,1.58-0.4,2.14,1.14c0.06,0.15,0.09,0.32,0.14,0.47
			c0.51,1.45,1.02,2.9,1.55,4.43c0.71-0.39,1.28-0.71,1.86-1.01c0.71-0.38,1.17-0.13,1.16,0.68c-0.02,0.76-0.17,1.51-0.24,2.27
			c-0.08,0.9-0.14,1.81-0.22,2.87c2.86,0,5.54-0.01,8.21,0c1.42,0.01,1.68,0.45,1.14,1.79c-0.53,1.3-1.02,2.62-1.6,4.13
			c0.99-0.2,1.79-0.35,2.58-0.52c0.67-0.15,1.28-0.16,1.56,0.61c1.23,3.31,2.48,6.61,3.65,9.94c0.55,1.55,1.08,3.02,2.77,3.72
			c0.53,0.22,1.03,0.61,1.44,1.02c0.24,0.23,0.43,0.68,0.39,1c-0.14,1.15-0.4,2.28-0.6,3.41c-0.18,1.04-0.35,2.08-0.56,3.3
			c1.2-0.65,2.14-1.2,3.12-1.65c0.34-0.16,0.8-0.08,1.21-0.11c0.02,0.37,0.13,0.76,0.05,1.11c-0.24,1.04-0.55,2.07-0.89,3.3
			c0.82-0.19,1.41-0.37,2.02-0.46c0.38-0.06,0.78,0,1.17,0c-0.03,0.43,0.03,0.9-0.12,1.28c-0.86,2.17-1.88,4.28-2.64,6.49
			c-0.41,1.19-0.41,2.52-0.6,3.8c1.85-2.1,3.44-4.23,5.35-6.02c7.11-6.7,15.85-10.35,25.1-12.93c3.11-0.87,6.31-1.39,9.46-2.08
			c0.31-0.07,0.59-0.22,0.94-0.36c-0.5-0.71-0.94-1.32-1.36-1.95c-1.52-2.26-3.03-4.53-4.57-6.78c-0.3-0.44-0.69-0.78-1.33-0.43
			c-0.51,0.29-1.1,0.44-1.63,0.7c-3.42,1.69-6.85,3.35-10.23,5.11c-2.49,1.3-4.76,3.07-7.7,3.36c-1.12,0.11-1.37-0.03-1.14-1.12
			c0.2-0.94,0.51-1.87,0.83-2.99c-1.17,0.6-2.12,1.12-3.11,1.56c-0.28,0.13-0.74,0.14-0.99-0.01c-0.18-0.11-0.25-0.59-0.2-0.87
			c0.38-2.25,0.79-4.49,1.23-6.73c0.13-0.64,0.08-1.07-0.57-1.37c-2.17-0.99-3.18-2.79-3.85-5.03c-0.85-2.87-2.03-5.65-3.05-8.47
			c-0.22-0.62-0.55-0.92-1.25-0.74c-0.83,0.21-1.68,0.37-2.53,0.46c-0.35,0.04-0.85-0.02-1.05-0.25c-0.18-0.2-0.12-0.72-0.01-1.04
			c0.55-1.5,1.15-2.98,1.76-4.57c-2.85-0.12-5.53-0.26-8.2-0.32c-0.91-0.02-1.25-0.3-1.14-1.23c0.16-1.3,0.23-2.61,0.35-4.05
			c-0.42,0.19-0.72,0.31-1.01,0.46c-1.14,0.6-1.3,0.52-1.72-0.72c-0.6-1.77-1.23-3.54-1.83-5.26c-0.8,0.09-1.69,0.47-2.13,0.18
			c-0.52-0.36-0.66-1.29-0.97-2.01c-0.17,0.02-0.34,0.01-0.48,0.08c-4.59,2.11-8.64,4.93-11.68,9.02
			C57.84,34.64,56.77,35.67,58.04,37.08z M7.09,55.09c-0.12-0.05-0.24-0.11-0.37-0.16c-1.27,0.51-2.52,1.08-3.82,1.51
			c-1.26,0.42-1.58,1.35-1.49,2.47c0.05,0.56,0.33,1.14,0.63,1.63c1.66,2.61,3.37,5.19,5.06,7.79c4.3,6.6,8.61,13.2,12.89,19.82
			c0.46,0.71,0.73,1.54,1.19,2.25c0.58,0.9,1.32,1.71,1.9,2.61c4.67,7.18,9.31,14.38,13.97,21.57c0.73,1.12,1.86,1.46,3.11,0.94
			c4.81-2,9.62-4,14.42-6c4.27-1.78,8.54-3.56,12.8-5.35c1.72-0.72,3.43-1.46,5.15-2.18c2.46-1.03,4.93-2.05,7.39-3.07
			c1.09-0.45,2.2-0.87,3.28-1.35c0.77-0.34,0.93-1.12,0.61-2.22c-0.25-0.84-0.82-0.47-1.29-0.39c-1.76,0.29-3.51,0.64-5.27,0.93
			c-4.83,0.82-9.55,2.1-14.13,3.83c-7.38,2.78-14.31,6.45-20.87,10.82c-0.76,0.51-1.25,0.39-1.72-0.35
			c-0.84-1.34-1.71-2.67-2.57-3.99c-5.69-8.7-11.38-17.38-17.06-26.08C16.31,73,11.7,65.88,7.05,58.79
			C6.25,57.56,5.09,56.45,7.09,55.09z M86.69,76.37c-1.08,0.57-1.9,1.05-2.76,1.43c-0.41,0.18-0.91,0.17-1.36,0.25
			c-0.05-0.43-0.2-0.87-0.14-1.28c0.35-2.19,0.73-4.37,1.14-6.54c0.11-0.58-0.01-0.93-0.57-1.19c-2.11-0.98-3.19-2.69-3.85-4.91
			c-0.85-2.84-2.06-5.56-3.06-8.36c-0.3-0.83-0.7-1.17-1.6-0.91c-0.73,0.21-1.48,0.34-2.23,0.43c-0.36,0.04-0.87,0.01-1.07-0.21
			c-0.18-0.2-0.14-0.73-0.03-1.06c0.24-0.75,0.59-1.47,0.86-2.21c0.29-0.76,0.54-1.53,0.87-2.44c-0.59,0-1.02,0.01-1.44,0
			c-2.28-0.06-4.57-0.13-6.85-0.18c-0.88-0.02-1.29-0.38-1.1-1.3c0.1-0.45,0.15-0.92,0.19-1.38c0.06-0.8,0.08-1.6,0.13-2.58
			c-0.51,0.23-0.81,0.34-1.09,0.5c-0.92,0.52-1.14,0.47-1.51-0.55c-0.57-1.55-1.11-3.11-1.61-4.68c-0.23-0.71-0.44-1.15-1.3-0.63
			c-0.63,0.38-1.3,0.36-1.59-0.5c-0.45-1.35-0.85-2.71-1.29-4.05c-0.28-0.85-0.59-1.69-0.95-2.7c-1.49,2.63-1.98,5.21-1.7,7.95
			c0.04,0.44,0.23,0.91,0.47,1.28c2.98,4.61,5.99,9.2,8.99,13.79c7.11,10.89,14.22,21.79,21.34,32.68c0.69,1.06,1.41,2.1,2.26,3.37
			c0.35-3.74,1.18-7.06,2.87-10.3c-0.71,0.18-1.18,0.31-1.65,0.41c-1.2,0.26-1.46,0.02-1.18-1.19
			C86.07,78.39,86.37,77.5,86.69,76.37z M82.5,93.45c0.01-0.06,0.01-0.11,0.02-0.17c-0.39-0.02-0.78-0.1-1.16-0.06
			c-3.12,0.27-6.25,0.51-9.37,0.86c-3.99,0.45-7.79,1.65-11.58,2.94c-5.89,2-11.43,4.72-16.74,7.93c-1.15,0.69-1.18,0.67-1.91-0.44
			c-3.34-5.1-6.7-10.19-10.03-15.29c-7.04-10.78-14.07-21.57-21.1-32.36c-0.44-0.67-0.91-1.32-1.46-2.11
			c-0.45,0.5-0.77,0.93-1.16,1.26c-0.58,0.49-0.52,0.96-0.14,1.54c3.41,5.21,6.8,10.43,10.21,15.63
			c4.69,7.17,9.39,14.32,14.07,21.49c3.03,4.63,6.05,9.27,9.06,13.92c0.28,0.43,0.53,0.63,1.03,0.29c4.45-2.96,9.13-5.48,13.96-7.78
			c5.87-2.79,12-4.77,18.32-6.16C77.17,94.36,79.84,93.94,82.5,93.45z M122.89,58.73c2.25,3.2,4.41,6.28,6.56,9.36
			c0.82,1.18,0.81,1.23-0.13,2.18c0.16,1.05,2.2,1.66,0.69,3.1c0.58,0.79,1.16,1.55,1.71,2.33c0.71,1.01,0.44,1.49-0.79,1.73
			c-3.33,0.65-6.71,1.17-9.96,2.12c-4.42,1.29-8.78,2.83-13.1,4.45c-5.72,2.15-11.13,4.96-16.37,8.11c-0.84,0.5-1.63,1.48-2.8,0.4
			c1,2.03,1.23,2.13,2.94,1.55c4.42-1.5,8.84-3.01,13.27-4.5c4.74-1.59,9.49-3.17,14.23-4.74c5.65-1.87,11.31-3.73,16.96-5.62
			c0.32-0.11,0.74-0.36,0.82-0.63c0.35-1.14,0.61-2.3-0.19-3.41c-2.98-4.14-5.94-8.29-8.91-12.44c-1.13-1.57-2.26-3.14-3.41-4.73
			C123.89,58.25,123.45,58.46,122.89,58.73z M90.77,90.46c0.07,0.1,0.15,0.2,0.22,0.29c12.14-7.16,25.08-12.21,39.2-14.71
			c-0.52-0.72-0.99-1.23-1.3-1.82c-0.43-0.83-1.07-0.85-1.84-0.68c-2.15,0.5-4.32,0.91-6.45,1.5c-2.92,0.81-5.85,1.62-8.68,2.67
			c-5.13,1.9-10.01,4.34-14.47,7.54C95.16,86.9,92.99,88.72,90.77,90.46z M89.37,89.66c0.07,0.08,0.14,0.16,0.22,0.24
			c10.95-10.33,24.31-15.43,38.85-17.95c-0.54-1.49-0.81-1.73-2.13-1.45c-2.19,0.45-4.36,1-6.55,1.5c-4.77,1.1-9.34,2.75-13.76,4.83
			c-4.92,2.32-9.46,5.19-13.31,9.05C91.52,87.07,90.48,88.4,89.37,89.66z"/>
		<path class="st1" d="M56.43,12.97c-0.22,0.24-0.41,0.66-0.68,0.71c-0.3,0.06-0.81-0.13-0.97-0.37c-1.01-1.58-1.95-3.21-2.9-4.82
			C51.42,7.7,51,6.87,50.51,6.1C50.12,5.5,50.18,5,50.77,4.67c0.53-0.3,0.91-0.01,1.2,0.49c1.35,2.34,2.73,4.66,4.1,6.99
			C56.2,12.37,56.28,12.62,56.43,12.97z"/>
		<path class="st1" d="M39.35,16.07c0.98,0.48,1.8,0.89,2.63,1.29c1.92,0.94,3.84,1.89,5.77,2.81c0.52,0.25,0.92,0.63,0.6,1.12
			c-0.17,0.26-0.9,0.4-1.23,0.25c-2.66-1.22-5.3-2.5-7.91-3.82c-0.28-0.14-0.49-0.66-0.51-1.02C38.68,16.5,39.12,16.27,39.35,16.07z
			"/>
		<path class="st1" d="M66.23,8.06c0-2.01,0-4.02,0-6.02c0-0.33-0.04-0.73,0.13-0.96c0.22-0.29,0.62-0.58,0.96-0.6
			c0.18-0.01,0.58,0.55,0.57,0.83c-0.12,2.53-0.29,5.07-0.51,7.6c-0.03,0.29-0.5,0.53-0.77,0.8c-0.24-0.28-0.53-0.54-0.69-0.86
			c-0.1-0.21,0-0.52,0.02-0.78C66.03,8.06,66.13,8.06,66.23,8.06z"/>
		<path class="st1" d="M38.52,32.93c-1.19,0-2.38,0.04-3.56-0.02c-0.31-0.02-0.61-0.33-0.92-0.51c0.28-0.27,0.54-0.75,0.84-0.77
			c2.53-0.2,5.07-0.34,7.61-0.43c0.29-0.01,0.6,0.44,0.9,0.67c-0.34,0.26-0.66,0.73-1.01,0.75c-1.28,0.09-2.57,0.04-3.86,0.04
			C38.52,32.75,38.52,32.84,38.52,32.93z"/>
		<path class="st1" d="M98.77,42.44c0.75-1.26,1.38-2.49,2.16-3.61c1.92-2.76,4.42-4.83,7.67-5.76c2.35-0.68,4.79-0.56,7.17,0.02
			c0.95,0.24,1.89,0.58,2.78,1c0.35,0.16,0.79,0.72,0.74,1.01c-0.12,0.62-0.66,0.41-1.11,0.23c-2.19-0.88-4.44-1.49-6.83-1.35
			c-3.75,0.23-6.6,2.11-8.81,5.01c-0.89,1.17-1.53,2.52-2.34,3.76c-0.16,0.24-0.55,0.46-0.83,0.46
			C99.19,43.2,99.01,42.77,98.77,42.44z"/>
		<path class="st1" d="M96.58,30.24c1.03,0.3,1.98,0.58,2.92,0.86c0.19,0.05,0.42,0.03,0.58,0.13c0.41,0.25,1.18,0.29,0.88,1.05
			c-0.26,0.68-0.84,0.44-1.36,0.28c-1-0.31-2.01-0.61-3.02-0.91c-0.12-0.04-0.26-0.04-0.49-0.07c-0.38,1.12-0.74,2.24-1.13,3.35
			c-0.15,0.43-0.33,1.04-0.9,0.74c-0.26-0.14-0.43-0.84-0.34-1.21c0.26-1.08,0.68-2.12,1.07-3.27c-1.28-0.41-2.54-0.78-3.77-1.23
			c-0.29-0.11-0.47-0.51-0.7-0.77c0.35-0.15,0.73-0.48,1.04-0.42c1,0.2,1.97,0.51,2.94,0.83c0.6,0.2,0.97,0.21,1.16-0.55
			c0.24-0.96,0.57-1.9,0.97-2.8c0.13-0.3,0.62-0.67,0.88-0.63c0.64,0.11,0.49,0.66,0.34,1.12c-0.32,0.97-0.66,1.94-0.98,2.91
			C96.62,29.79,96.62,29.96,96.58,30.24z"/>
		<path class="st1" d="M110.09,23.36c0.49-1.17,0.95-2.23,1.37-3.3c0.19-0.49,0.39-1.06,0.99-0.78c0.23,0.11,0.32,0.85,0.22,1.24
			c-0.2,0.79-0.51,1.58-0.9,2.3c-0.45,0.82-0.18,1.18,0.6,1.44c0.88,0.29,1.77,0.55,2.59,0.95c0.33,0.16,0.75,0.68,0.69,0.96
			c-0.11,0.6-0.63,0.46-1.11,0.27c-0.95-0.37-1.98-0.58-2.88-1.04c-0.69-0.34-0.89-0.06-1.1,0.45c-0.36,0.88-0.68,1.79-1.09,2.65
			c-0.14,0.29-0.48,0.69-0.73,0.68c-0.68-0.01-0.75-0.52-0.54-1.07c0.35-0.92,0.7-1.85,1.1-2.76c0.22-0.51,0.14-0.79-0.41-0.97
			c-0.93-0.32-1.87-0.63-2.76-1.06c-0.36-0.18-0.58-0.65-0.86-0.98c0.4-0.09,0.85-0.33,1.21-0.23
			C107.67,22.45,108.83,22.91,110.09,23.36z"/>
	</g>
	<g>
		<path class="st2" d="M175.88,52.34c-0.46-0.78-0.99-1.65-1.59-2.62c-0.6-0.97-1.25-1.97-1.94-3.02c-0.69-1.04-1.42-2.1-2.16-3.17
			s-1.49-2.11-2.23-3.11c-0.74-1-1.45-1.94-2.15-2.83c-0.69-0.88-1.34-1.66-1.93-2.34v17.08h-3V30.46h2.43
			c0.99,1.05,2.05,2.28,3.17,3.68c1.13,1.4,2.24,2.84,3.35,4.33c1.1,1.48,2.15,2.94,3.13,4.37c0.98,1.43,1.8,2.7,2.48,3.82v-16.2h3
			v21.88H175.88z"/>
		<path class="st2" d="M183.86,52.34V30.46h13.35v2.62h-10.29v6.5h9.16v2.56h-9.16v7.58h11.08v2.62H183.86z"/>
		<path class="st2" d="M216.89,52.34c-0.46-0.78-0.99-1.65-1.59-2.62c-0.6-0.97-1.25-1.97-1.94-3.02c-0.69-1.04-1.42-2.1-2.16-3.17
			s-1.49-2.11-2.23-3.11c-0.74-1-1.45-1.94-2.15-2.83c-0.69-0.88-1.34-1.66-1.93-2.34v17.08h-3V30.46h2.43
			c0.99,1.05,2.05,2.28,3.17,3.68c1.13,1.4,2.24,2.84,3.35,4.33c1.1,1.48,2.15,2.94,3.13,4.37c0.98,1.43,1.8,2.7,2.48,3.82v-16.2h3
			v21.88H216.89z"/>
		<path class="st2" d="M238.64,30.46h3.06v21.88h-3.06v-10.1h-10.7v10.1h-3.06V30.46h3.06v9.13h10.7V30.46z"/>
		<path class="st2" d="M255.28,52.81c-1.43,0-2.67-0.22-3.73-0.66c-1.05-0.44-1.92-1.05-2.59-1.82c-0.67-0.77-1.17-1.68-1.5-2.73
			c-0.33-1.05-0.49-2.19-0.49-3.41V30.46h3.06v13.39c0,2.19,0.48,3.78,1.45,4.77c0.97,0.99,2.23,1.48,3.79,1.48
			c0.78,0,1.49-0.12,2.13-0.36c0.64-0.24,1.19-0.62,1.66-1.12s0.82-1.15,1.07-1.94c0.25-0.79,0.38-1.73,0.38-2.83V30.46h3.06v13.73
			c0,1.22-0.16,2.36-0.49,3.41c-0.33,1.05-0.83,1.96-1.52,2.73c-0.68,0.77-1.55,1.37-2.59,1.82
			C257.95,52.59,256.71,52.81,255.28,52.81z"/>
		<path class="st2" d="M278.68,49.31c-0.21-0.5-0.49-1.15-0.84-1.93c-0.35-0.78-0.72-1.62-1.12-2.53s-0.83-1.84-1.28-2.79
			s-0.88-1.86-1.28-2.72c-0.4-0.85-0.77-1.62-1.12-2.29c-0.35-0.67-0.63-1.19-0.84-1.55c-0.23,2.48-0.42,5.17-0.57,8.07
			c-0.15,2.89-0.27,5.82-0.38,8.76h-3c0.08-1.89,0.18-3.8,0.28-5.73c0.1-1.93,0.23-3.82,0.36-5.68c0.14-1.86,0.28-3.68,0.44-5.45
			c0.16-1.77,0.33-3.44,0.52-5.02h2.68c0.57,0.93,1.18,2.02,1.83,3.28c0.65,1.26,1.31,2.58,1.96,3.96c0.65,1.38,1.28,2.76,1.89,4.14
			c0.61,1.38,1.17,2.64,1.67,3.77c0.5-1.14,1.06-2.39,1.67-3.77c0.61-1.38,1.24-2.76,1.89-4.14c0.65-1.38,1.31-2.7,1.96-3.96
			c0.65-1.26,1.26-2.36,1.83-3.28h2.68c0.72,7.05,1.25,14.34,1.61,21.88h-3c-0.11-2.95-0.23-5.87-0.38-8.76
			c-0.15-2.89-0.34-5.58-0.57-8.07c-0.21,0.36-0.49,0.87-0.84,1.55c-0.35,0.67-0.72,1.44-1.12,2.29c-0.4,0.85-0.83,1.76-1.28,2.72
			s-0.88,1.89-1.28,2.79c-0.4,0.91-0.77,1.75-1.12,2.53c-0.35,0.78-0.63,1.42-0.84,1.93H278.68z"/>
		<path class="st2" d="M314.35,43.18c0.34,0.42,0.76,0.97,1.28,1.66c0.52,0.68,1.05,1.44,1.59,2.27c0.55,0.83,1.09,1.7,1.63,2.61
			c0.54,0.91,0.99,1.78,1.37,2.62h-3.35c-0.42-0.8-0.88-1.61-1.37-2.43c-0.5-0.82-0.99-1.61-1.5-2.35c-0.5-0.75-1.01-1.45-1.5-2.1
			c-0.49-0.65-0.94-1.22-1.34-1.71c-0.27,0.02-0.55,0.03-0.84,0.03s-0.57,0-0.87,0h-2.75v8.56h-3.06V30.77
			c0.86-0.21,1.83-0.35,2.89-0.43c1.06-0.07,2.04-0.11,2.92-0.11c3.07,0,5.41,0.58,7.02,1.74c1.61,1.16,2.42,2.88,2.42,5.18
			c0,1.45-0.38,2.69-1.15,3.73C316.98,41.91,315.85,42.68,314.35,43.18z M309.71,32.92c-1.31,0-2.31,0.03-3,0.09v8.24h2.18
			c1.05,0,2-0.05,2.84-0.16c0.84-0.1,1.55-0.3,2.13-0.6c0.58-0.29,1.03-0.71,1.34-1.25c0.32-0.54,0.47-1.25,0.47-2.13
			c0-0.82-0.16-1.5-0.47-2.05c-0.32-0.55-0.74-0.98-1.28-1.29c-0.54-0.32-1.17-0.54-1.89-0.66S310.53,32.92,309.71,32.92z"/>
		<path class="st2" d="M323.51,52.34V30.46h13.35v2.62h-10.29v6.5h9.16v2.56h-9.16v7.58h11.08v2.62H323.51z"/>
		<path class="st2" d="M346.62,50.16c3.2,0,4.8-1.09,4.8-3.28c0-0.67-0.14-1.25-0.43-1.72c-0.28-0.47-0.67-0.88-1.15-1.23
			s-1.04-0.65-1.66-0.9c-0.62-0.25-1.28-0.51-1.97-0.76c-0.8-0.27-1.56-0.58-2.27-0.93c-0.72-0.35-1.34-0.76-1.86-1.23
			c-0.53-0.47-0.94-1.04-1.25-1.69c-0.31-0.65-0.46-1.44-0.46-2.37c0-1.92,0.65-3.41,1.96-4.48c1.31-1.07,3.1-1.61,5.4-1.61
			c1.33,0,2.53,0.14,3.62,0.43c1.08,0.28,1.88,0.6,2.38,0.93l-0.98,2.49c-0.44-0.27-1.1-0.54-1.97-0.8
			c-0.87-0.26-1.89-0.39-3.05-0.39c-0.59,0-1.14,0.06-1.64,0.19c-0.51,0.13-0.95,0.32-1.33,0.57c-0.38,0.25-0.68,0.57-0.9,0.96
			c-0.22,0.39-0.33,0.85-0.33,1.37c0,0.59,0.12,1.08,0.35,1.48c0.23,0.4,0.56,0.75,0.98,1.06c0.42,0.3,0.91,0.58,1.47,0.84
			c0.56,0.25,1.17,0.51,1.85,0.76c0.95,0.38,1.82,0.76,2.6,1.14c0.79,0.38,1.47,0.83,2.05,1.36c0.58,0.53,1.03,1.15,1.34,1.88
			c0.32,0.73,0.47,1.61,0.47,2.64c0,1.92-0.7,3.39-2.1,4.42c-1.4,1.03-3.37,1.55-5.92,1.55c-0.86,0-1.66-0.06-2.38-0.17
			c-0.73-0.12-1.37-0.25-1.94-0.41c-0.57-0.16-1.06-0.33-1.47-0.5s-0.73-0.33-0.96-0.46l0.92-2.53c0.48,0.27,1.22,0.58,2.21,0.92
			C343.98,49.99,345.19,50.16,346.62,50.16z"/>
		<path class="st2" d="M366.48,52.81c-1.43,0-2.67-0.22-3.73-0.66c-1.05-0.44-1.92-1.05-2.59-1.82c-0.67-0.77-1.17-1.68-1.5-2.73
			c-0.33-1.05-0.49-2.19-0.49-3.41V30.46h3.06v13.39c0,2.19,0.48,3.78,1.45,4.77c0.97,0.99,2.23,1.48,3.79,1.48
			c0.78,0,1.49-0.12,2.13-0.36c0.64-0.24,1.19-0.62,1.66-1.12s0.82-1.15,1.07-1.94c0.25-0.79,0.38-1.73,0.38-2.83V30.46h3.06v13.73
			c0,1.22-0.16,2.36-0.49,3.41c-0.33,1.05-0.83,1.96-1.52,2.73c-0.68,0.77-1.55,1.37-2.59,1.82
			C369.15,52.59,367.91,52.81,366.48,52.81z"/>
		<path class="st2" d="M393.22,49.68v2.65h-13.17V30.46h3.06v19.23H393.22z"/>
		<path class="st2" d="M407.43,30.46v2.65h-6.88v19.23h-3.06V33.11h-6.88v-2.65H407.43z"/>
		<path class="st2" d="M423.24,52.34c-0.36-0.95-0.69-1.88-1.01-2.79c-0.32-0.92-0.64-1.85-0.98-2.79h-9.91l-1.99,5.59h-3.19
			c0.84-2.32,1.63-4.46,2.37-6.42c0.74-1.97,1.46-3.84,2.16-5.6c0.71-1.77,1.4-3.46,2.1-5.07c0.69-1.61,1.42-3.2,2.18-4.78h2.81
			c0.76,1.58,1.48,3.17,2.18,4.78c0.69,1.61,1.39,3.3,2.1,5.07c0.7,1.77,1.43,3.64,2.16,5.6c0.74,1.97,1.53,4.11,2.37,6.42H423.24z
			 M420.37,44.22c-0.67-1.83-1.34-3.6-2-5.32c-0.66-1.72-1.35-3.36-2.07-4.94c-0.74,1.58-1.44,3.23-2.1,4.94
			c-0.66,1.71-1.32,3.49-1.97,5.32H420.37z"/>
		<path class="st2" d="M447.52,41.38c0,1.89-0.29,3.54-0.88,4.94c-0.59,1.4-1.42,2.56-2.49,3.47c-1.07,0.92-2.36,1.6-3.85,2.05
			c-1.49,0.45-3.14,0.68-4.93,0.68c-0.88,0-1.86-0.04-2.92-0.11c-1.06-0.07-2.03-0.22-2.89-0.43V30.77
			c0.86-0.21,1.83-0.35,2.89-0.43c1.06-0.07,2.04-0.11,2.92-0.11c1.79,0,3.43,0.23,4.93,0.68c1.49,0.45,2.78,1.14,3.85,2.05
			c1.07,0.92,1.9,2.07,2.49,3.47C447.23,37.84,447.52,39.49,447.52,41.38z M435.62,49.84c2.9,0,5.07-0.74,6.5-2.23
			c1.43-1.48,2.15-3.56,2.15-6.24c0-2.67-0.72-4.75-2.15-6.24c-1.43-1.48-3.6-2.23-6.5-2.23c-0.86,0-1.53,0.01-2,0.03
			c-0.47,0.02-0.81,0.04-0.99,0.06v16.73c0.19,0.02,0.52,0.04,0.99,0.06C434.09,49.83,434.76,49.84,435.62,49.84z"/>
		<path class="st2" d="M451.19,41.38c0-1.87,0.28-3.52,0.84-4.96c0.56-1.43,1.31-2.63,2.27-3.58c0.96-0.96,2.07-1.68,3.35-2.16
			s2.63-0.73,4.06-0.73c1.41,0,2.74,0.24,3.99,0.73c1.25,0.48,2.35,1.21,3.3,2.16c0.95,0.96,1.7,2.15,2.26,3.58
			c0.56,1.43,0.84,3.08,0.84,4.96c0,1.87-0.28,3.53-0.84,4.96c-0.56,1.43-1.31,2.63-2.26,3.58c-0.95,0.96-2.05,1.68-3.3,2.16
			c-1.25,0.48-2.58,0.73-3.99,0.73c-1.43,0-2.78-0.24-4.06-0.73c-1.27-0.48-2.39-1.2-3.35-2.16c-0.96-0.96-1.72-2.15-2.27-3.58
			C451.46,44.91,451.19,43.25,451.19,41.38z M454.41,41.38c0,1.33,0.17,2.53,0.5,3.62c0.34,1.08,0.82,2,1.44,2.76
			c0.62,0.76,1.38,1.34,2.27,1.75c0.89,0.41,1.9,0.62,3.02,0.62c1.12,0,2.12-0.21,3-0.62c0.88-0.41,1.64-0.99,2.26-1.75
			c0.62-0.76,1.1-1.68,1.44-2.76c0.34-1.08,0.5-2.29,0.5-3.62c0-1.33-0.17-2.53-0.5-3.61c-0.34-1.08-0.82-2-1.44-2.76
			c-0.62-0.76-1.37-1.34-2.26-1.75c-0.88-0.41-1.88-0.62-3-0.62c-1.12,0-2.12,0.21-3.02,0.62c-0.9,0.41-1.65,1-2.27,1.75
			c-0.62,0.76-1.1,1.68-1.44,2.76C454.57,38.85,454.41,40.06,454.41,41.38z"/>
		<path class="st2" d="M160.88,85.22V63.34h13.2v2.62h-10.13v6.6h9v2.59h-9v10.07H160.88z"/>
		<path class="st2" d="M176.54,74.27c0-1.87,0.28-3.52,0.84-4.96c0.56-1.43,1.31-2.63,2.27-3.58c0.96-0.96,2.07-1.68,3.35-2.16
			s2.63-0.73,4.06-0.73c1.41,0,2.74,0.24,3.99,0.73c1.25,0.48,2.35,1.21,3.3,2.16c0.95,0.96,1.7,2.15,2.26,3.58
			c0.56,1.43,0.84,3.08,0.84,4.96c0,1.87-0.28,3.53-0.84,4.96c-0.56,1.43-1.31,2.63-2.26,3.58c-0.95,0.96-2.05,1.68-3.3,2.16
			c-1.25,0.48-2.58,0.73-3.99,0.73c-1.43,0-2.78-0.24-4.06-0.73c-1.27-0.48-2.39-1.2-3.35-2.16c-0.96-0.96-1.72-2.15-2.27-3.58
			C176.82,77.79,176.54,76.14,176.54,74.27z M179.76,74.27c0,1.33,0.17,2.53,0.5,3.62c0.34,1.08,0.82,2,1.44,2.76
			c0.62,0.76,1.38,1.34,2.27,1.75c0.89,0.41,1.9,0.62,3.02,0.62c1.12,0,2.12-0.21,3-0.62c0.88-0.41,1.64-0.99,2.26-1.75
			c0.62-0.76,1.1-1.68,1.44-2.76c0.34-1.08,0.5-2.29,0.5-3.62c0-1.33-0.17-2.53-0.5-3.61c-0.34-1.08-0.82-2-1.44-2.76
			c-0.62-0.76-1.37-1.34-2.26-1.75c-0.88-0.41-1.88-0.62-3-0.62c-1.12,0-2.12,0.21-3.02,0.62c-0.9,0.41-1.65,1-2.27,1.75
			c-0.62,0.76-1.1,1.68-1.44,2.76C179.93,71.74,179.76,72.94,179.76,74.27z"/>
		<path class="st2" d="M201.99,63.34h3.06v21.88h-3.06V63.34z"/>
		<path class="st2" d="M217.77,85.22V63.34h13.35v2.62h-10.29v6.5h9.16v2.56h-9.16v7.58h11.08v2.62H217.77z"/>
		<path class="st2" d="M250.8,85.22c-0.46-0.78-0.99-1.65-1.59-2.62c-0.6-0.97-1.25-1.97-1.94-3.02c-0.69-1.04-1.42-2.1-2.16-3.17
			s-1.49-2.11-2.23-3.11c-0.74-1-1.45-1.94-2.15-2.83c-0.69-0.88-1.34-1.66-1.93-2.34v17.08h-3V63.34h2.43
			c0.99,1.05,2.05,2.28,3.17,3.68c1.13,1.4,2.24,2.84,3.35,4.33c1.1,1.48,2.15,2.94,3.13,4.37c0.98,1.43,1.8,2.7,2.48,3.82v-16.2h3
			v21.88H250.8z"/>
		<path class="st2" d="M268.19,85.7c-1.54,0-2.94-0.25-4.2-0.76c-1.26-0.5-2.35-1.24-3.25-2.21c-0.91-0.97-1.61-2.16-2.1-3.58
			c-0.5-1.42-0.74-3.05-0.74-4.88c0-1.83,0.28-3.46,0.84-4.88c0.56-1.42,1.31-2.61,2.26-3.58c0.95-0.97,2.05-1.71,3.31-2.21
			c1.26-0.5,2.61-0.76,4.04-0.76c0.9,0,1.72,0.06,2.45,0.19s1.36,0.27,1.89,0.44c0.54,0.17,0.97,0.34,1.31,0.5
			c0.34,0.17,0.57,0.29,0.69,0.38l-0.88,2.53c-0.19-0.13-0.46-0.26-0.82-0.41c-0.36-0.15-0.76-0.29-1.22-0.44
			c-0.45-0.15-0.95-0.27-1.48-0.36c-0.54-0.09-1.08-0.14-1.63-0.14c-1.16,0-2.2,0.2-3.13,0.6c-0.93,0.4-1.72,0.98-2.37,1.74
			c-0.65,0.76-1.15,1.68-1.5,2.76c-0.35,1.08-0.52,2.3-0.52,3.65c0,1.31,0.15,2.5,0.46,3.57c0.3,1.07,0.76,1.99,1.37,2.76
			c0.61,0.77,1.37,1.36,2.29,1.78c0.92,0.42,1.98,0.63,3.2,0.63c1.41,0,2.58-0.15,3.5-0.44c0.93-0.29,1.62-0.56,2.08-0.79l0.79,2.53
			c-0.15,0.11-0.41,0.24-0.79,0.4c-0.38,0.16-0.85,0.31-1.42,0.46c-0.57,0.15-1.23,0.27-1.99,0.38S269.08,85.7,268.19,85.7z"/>
		<path class="st2" d="M276.85,74.27c0-1.87,0.28-3.52,0.84-4.96c0.56-1.43,1.31-2.63,2.27-3.58c0.96-0.96,2.07-1.68,3.35-2.16
			s2.63-0.73,4.06-0.73c1.41,0,2.74,0.24,3.99,0.73c1.25,0.48,2.35,1.21,3.3,2.16c0.95,0.96,1.7,2.15,2.26,3.58
			c0.56,1.43,0.84,3.08,0.84,4.96c0,1.87-0.28,3.53-0.84,4.96c-0.56,1.43-1.31,2.63-2.26,3.58c-0.95,0.96-2.05,1.68-3.3,2.16
			c-1.25,0.48-2.58,0.73-3.99,0.73c-1.43,0-2.78-0.24-4.06-0.73c-1.27-0.48-2.39-1.2-3.35-2.16c-0.96-0.96-1.72-2.15-2.27-3.58
			C277.12,77.79,276.85,76.14,276.85,74.27z M280.07,74.27c0,1.33,0.17,2.53,0.5,3.62c0.34,1.08,0.82,2,1.44,2.76
			c0.62,0.76,1.38,1.34,2.27,1.75c0.89,0.41,1.9,0.62,3.02,0.62c1.12,0,2.12-0.21,3-0.62c0.88-0.41,1.64-0.99,2.26-1.75
			c0.62-0.76,1.1-1.68,1.44-2.76c0.34-1.08,0.5-2.29,0.5-3.62c0-1.33-0.17-2.53-0.5-3.61c-0.34-1.08-0.82-2-1.44-2.76
			c-0.62-0.76-1.37-1.34-2.26-1.75c-0.88-0.41-1.88-0.62-3-0.62c-1.12,0-2.12,0.21-3.02,0.62c-0.9,0.41-1.65,1-2.27,1.75
			c-0.62,0.76-1.1,1.68-1.44,2.76C280.23,71.74,280.07,72.94,280.07,74.27z"/>
		<path class="st2" d="M317.29,85.22c-0.46-0.78-0.99-1.65-1.59-2.62c-0.6-0.97-1.25-1.97-1.94-3.02c-0.69-1.04-1.42-2.1-2.16-3.17
			s-1.49-2.11-2.23-3.11c-0.74-1-1.45-1.94-2.15-2.83c-0.69-0.88-1.34-1.66-1.93-2.34v17.08h-3V63.34h2.43
			c0.99,1.05,2.05,2.28,3.17,3.68c1.13,1.4,2.24,2.84,3.35,4.33c1.1,1.48,2.15,2.94,3.13,4.37c0.98,1.43,1.8,2.7,2.48,3.82v-16.2h3
			v21.88H317.29z"/>
		<path class="st2" d="M339.89,63.34V66h-6.88v19.23h-3.06V66h-6.88v-2.65H339.89z"/>
		<path class="st2" d="M353.82,76.07c0.34,0.42,0.76,0.97,1.28,1.66c0.52,0.68,1.05,1.44,1.59,2.27c0.55,0.83,1.09,1.7,1.63,2.61
			c0.54,0.91,0.99,1.78,1.37,2.62h-3.35c-0.42-0.8-0.88-1.61-1.37-2.43c-0.5-0.82-0.99-1.61-1.5-2.35c-0.5-0.75-1.01-1.45-1.5-2.1
			c-0.49-0.65-0.94-1.22-1.34-1.71c-0.27,0.02-0.55,0.03-0.84,0.03s-0.57,0-0.87,0h-2.75v8.56h-3.06V63.66
			c0.86-0.21,1.83-0.35,2.89-0.43c1.06-0.07,2.04-0.11,2.92-0.11c3.07,0,5.41,0.58,7.02,1.74c1.61,1.16,2.42,2.88,2.42,5.18
			c0,1.45-0.38,2.69-1.15,3.73C356.44,74.79,355.31,75.56,353.82,76.07z M349.18,65.81c-1.31,0-2.31,0.03-3,0.09v8.24h2.18
			c1.05,0,2-0.05,2.84-0.16c0.84-0.1,1.55-0.3,2.13-0.6c0.58-0.29,1.03-0.71,1.34-1.25c0.32-0.54,0.47-1.25,0.47-2.13
			c0-0.82-0.16-1.5-0.47-2.05c-0.32-0.55-0.74-0.98-1.28-1.29c-0.54-0.32-1.17-0.54-1.89-0.66S350,65.81,349.18,65.81z"/>
		<path class="st2" d="M378.48,85.22c-0.36-0.95-0.69-1.88-1.01-2.79c-0.32-0.92-0.64-1.85-0.98-2.79h-9.91l-1.99,5.59h-3.19
			c0.84-2.32,1.63-4.46,2.37-6.42c0.74-1.97,1.46-3.84,2.16-5.6c0.71-1.77,1.4-3.46,2.1-5.07c0.69-1.61,1.42-3.2,2.18-4.78h2.81
			c0.76,1.58,1.48,3.17,2.18,4.78c0.69,1.61,1.39,3.3,2.1,5.07c0.7,1.77,1.43,3.64,2.16,5.6c0.74,1.97,1.53,4.11,2.37,6.42H378.48z
			 M375.6,77.11c-0.67-1.83-1.34-3.6-2-5.32c-0.66-1.72-1.35-3.36-2.07-4.94c-0.74,1.58-1.44,3.23-2.1,4.94
			c-0.66,1.71-1.32,3.49-1.97,5.32H375.6z"/>
		<path class="st2" d="M402.75,74.27c0,1.89-0.29,3.54-0.88,4.94c-0.59,1.4-1.42,2.56-2.49,3.47c-1.07,0.92-2.36,1.6-3.85,2.05
			c-1.49,0.45-3.14,0.68-4.93,0.68c-0.88,0-1.86-0.04-2.92-0.11c-1.06-0.07-2.03-0.22-2.89-0.43V63.66
			c0.86-0.21,1.83-0.35,2.89-0.43c1.06-0.07,2.04-0.11,2.92-0.11c1.79,0,3.43,0.23,4.93,0.68c1.49,0.45,2.78,1.14,3.85,2.05
			c1.07,0.92,1.9,2.07,2.49,3.47C402.46,70.73,402.75,72.37,402.75,74.27z M390.85,82.73c2.9,0,5.07-0.74,6.5-2.23
			c1.43-1.48,2.15-3.56,2.15-6.24c0-2.67-0.72-4.75-2.15-6.24c-1.43-1.48-3.6-2.23-6.5-2.23c-0.86,0-1.53,0.01-2,0.03
			c-0.47,0.02-0.81,0.04-0.99,0.06v16.73c0.19,0.02,0.52,0.04,0.99,0.06C389.32,82.72,389.99,82.73,390.85,82.73z"/>
		<path class="st2" d="M406.42,74.27c0-1.87,0.28-3.52,0.84-4.96c0.56-1.43,1.31-2.63,2.27-3.58c0.96-0.96,2.07-1.68,3.35-2.16
			s2.63-0.73,4.06-0.73c1.41,0,2.74,0.24,3.99,0.73c1.25,0.48,2.35,1.21,3.3,2.16c0.95,0.96,1.7,2.15,2.26,3.58
			c0.56,1.43,0.84,3.08,0.84,4.96c0,1.87-0.28,3.53-0.84,4.96c-0.56,1.43-1.31,2.63-2.26,3.58c-0.95,0.96-2.05,1.68-3.3,2.16
			c-1.25,0.48-2.58,0.73-3.99,0.73c-1.43,0-2.78-0.24-4.06-0.73c-1.27-0.48-2.39-1.2-3.35-2.16c-0.96-0.96-1.72-2.15-2.27-3.58
			C406.7,77.79,406.42,76.14,406.42,74.27z M409.64,74.27c0,1.33,0.17,2.53,0.5,3.62c0.34,1.08,0.82,2,1.44,2.76
			c0.62,0.76,1.38,1.34,2.27,1.75c0.89,0.41,1.9,0.62,3.02,0.62c1.12,0,2.12-0.21,3-0.62c0.88-0.41,1.64-0.99,2.26-1.75
			c0.62-0.76,1.1-1.68,1.44-2.76c0.34-1.08,0.5-2.29,0.5-3.62c0-1.33-0.17-2.53-0.5-3.61c-0.34-1.08-0.82-2-1.44-2.76
			c-0.62-0.76-1.37-1.34-2.26-1.75c-0.88-0.41-1.88-0.62-3-0.62c-1.12,0-2.12,0.21-3.02,0.62c-0.9,0.41-1.65,1-2.27,1.75
			c-0.62,0.76-1.1,1.68-1.44,2.76C409.81,71.74,409.64,72.94,409.64,74.27z"/>
	</g>
	<path class="st3" d="M85.27,94.37h2.92c1.24,1.65,1.43,1.65,3.73,0.93c0.99-0.3,1.96-0.62,2.95-0.93H477.4l-18.9,21.36H43.03
		c1.7-0.69,3.41-1.4,5.11-2.13c4.5-1.92,8.98-3.9,13.48-5.81c1.81-0.77,3.68-1.37,5.48-2.13c1.95-0.81,3.83-1.78,5.78-2.58
		c3.61-1.47,7.25-2.84,10.85-4.3c1.58-0.63,1.57-0.66,1.54-2.39c-0.01-0.54-0.01-1.06-0.03-1.59
		C85.24,94.66,85.24,94.51,85.27,94.37z"/>
	<g>
		<path class="st4" d="M447.3,86.66l-3.69-3.69c-0.42-0.42-0.42-1.11,0-1.53l19.7-19.7c0.42-0.42,1.11-0.42,1.53,0l3.69,3.69
			c0.42,0.42,0.42,1.11,0,1.53l-19.7,19.7C448.4,87.09,447.72,87.09,447.3,86.66z"/>
		<path class="st4" d="M468.52,82.97l-3.69,3.69c-0.42,0.42-1.11,0.42-1.53,0l-19.7-19.7c-0.42-0.42-0.42-1.11,0-1.53l3.69-3.69
			c0.42-0.42,1.11-0.42,1.53,0l19.7,19.7C468.95,81.86,468.95,82.55,468.52,82.97z"/>
	</g>
</g>
</svg>
